<svg width="30" height="30" viewBox="0 0 30 30" fill="none" xmlns="http://www.w3.org/2000/svg">
<path d="M15.0002 28.4377C7.58774 28.4377 1.56274 22.4127 1.56274 15.0002C1.56274 7.58774 7.58774 1.56274 15.0002 1.56274C22.4127 1.56274 28.4377 7.58774 28.4377 15.0002C28.4377 22.4127 22.4127 28.4377 15.0002 28.4377ZM15.0002 3.43774C8.62525 3.43774 3.43774 8.62524 3.43774 15.0002C3.43774 21.3752 8.62525 26.5627 15.0002 26.5627C21.3752 26.5627 26.5627 21.3752 26.5627 15.0002C26.5627 8.62524 21.3752 3.43774 15.0002 3.43774Z" fill="black"/>
<path d="M15.0004 18.7624C14.7629 18.7624 14.5254 18.6749 14.3379 18.4874L9.92544 14.0749C9.56294 13.7124 9.56294 13.1124 9.92544 12.7499C10.2879 12.3874 10.8879 12.3874 11.2504 12.7499L15.0004 16.4999L18.7504 12.7499C19.1129 12.3874 19.7129 12.3874 20.0754 12.7499C20.4379 13.1124 20.4379 13.7124 20.0754 14.0749L15.6629 18.4874C15.4754 18.6749 15.2379 18.7624 15.0004 18.7624Z" fill="black"/>
</svg>
