<svg width="168" height="36" viewBox="0 0 168 36" fill="none" xmlns="http://www.w3.org/2000/svg">
    <g clip-path="url(#clip0_547_1110)">
        <path
            d="M24.4378 -3.05176e-05H29.9384C30.316 -3.05176e-05 30.6204 0.299641 30.6204 0.671455V27.0869C30.6204 27.4587 30.316 27.7584 29.9384 27.7584H24.4378C24.0602 27.7584 23.7559 27.4587 23.7559 27.0869V0.671455C23.7559 0.299641 24.0602 -3.05176e-05 24.4378 -3.05176e-05Z"
            fill="white" />
        <path
            d="M31.9336 17.5918C31.9336 10.4774 37.0961 7.03668 41.7006 7.03668C45.3132 7.03668 47.2576 8.9901 47.4154 9.34526H47.5337V8.10218C47.5337 7.73037 47.8381 7.43069 48.2157 7.43069H53.7163C54.0939 7.43069 54.3982 7.73037 54.3982 8.10218V27.0869C54.3982 27.4587 54.0939 27.7584 53.7163 27.7584H48.2157C47.8381 27.7584 47.5337 27.4587 47.5337 27.0869V25.8438H47.4154C47.2576 26.1935 45.3132 28.1524 41.7006 28.1524C37.0961 28.1524 31.9336 24.7117 31.9336 17.5973V17.5918ZM43.1715 22.1645C45.6344 22.1645 47.6972 20.483 47.6972 17.5918C47.6972 14.7005 45.6344 13.019 43.1715 13.019C40.7087 13.019 38.6854 14.7393 38.6854 17.5918C38.6854 20.4442 40.7876 22.1645 43.1715 22.1645Z"
            fill="white" />
        <path
            d="M57.397 7.43069H62.8976C63.2752 7.43069 63.5796 7.73037 63.5796 8.10218C63.5796 8.67933 64.2615 8.979 64.7124 8.60718C65.879 7.64157 67.4571 7.03668 69.4578 7.03668C73.6283 7.03668 77.1226 9.57834 77.1226 15.7937V27.0869C77.1226 27.4587 76.8183 27.7584 76.4407 27.7584H70.94C70.5624 27.7584 70.2581 27.4587 70.2581 27.0869V16.9702C70.2581 14.8614 69.2267 13.019 66.8822 13.019C64.5377 13.019 63.5852 14.8559 63.5852 16.9702V27.0869C63.5852 27.4587 63.2809 27.7584 62.9033 27.7584H57.4026C57.025 27.7584 56.7207 27.4587 56.7207 27.0869V8.10218C56.7207 7.73037 57.025 7.43069 57.4026 7.43069H57.397Z"
            fill="white" />
        <path
            d="M80.1079 7.43069H85.6086C85.9862 7.43069 86.2905 7.73037 86.2905 8.10218C86.2905 8.67933 86.9724 8.979 87.4233 8.60718C88.5899 7.64157 90.168 7.03668 92.1687 7.03668C96.3393 7.03668 99.8335 9.57834 99.8335 15.7937V27.0869C99.8335 27.4587 99.5292 27.7584 99.1516 27.7584H93.651C93.2734 27.7584 92.969 27.4587 92.969 27.0869V16.9702C92.969 14.8614 91.9377 13.019 89.5931 13.019C87.2486 13.019 86.2961 14.8559 86.2961 16.9702V27.0869C86.2961 27.4587 85.9918 27.7584 85.6142 27.7584H80.1136C79.736 27.7584 79.4316 27.4587 79.4316 27.0869V8.10218C79.4316 7.73037 79.736 7.43069 80.1136 7.43069H80.1079Z"
            fill="white" />
        <path
            d="M101.146 17.6306C101.146 10.7493 106.388 7.03668 111.748 7.03668C117.107 7.03668 123.042 10.4496 121.949 19.6229C121.909 19.9614 121.61 20.2111 121.267 20.2111H109.217C108.603 20.2111 108.287 20.9603 108.738 21.371C109.702 22.2422 111.122 22.6751 112.858 22.6751C114.357 22.6751 115.732 22.4198 117.09 21.6318C117.367 21.4709 117.722 21.5374 117.941 21.765L120.139 24.0736C120.387 24.3344 120.387 24.7339 120.139 25.0003C118.426 26.8261 115.687 28.1524 112.103 28.1524C106.303 28.1524 101.146 24.3233 101.146 17.6362V17.6306ZM114.819 15.4386C115.366 15.4386 115.681 14.8448 115.394 14.3897C114.633 13.2021 113.219 12.6583 111.832 12.6583C110.446 12.6583 109.082 13.191 108.208 14.3564C107.876 14.8004 108.191 15.4386 108.755 15.4386H114.819Z"
            fill="white" />
        <path
            d="M124.061 7.4307H129.562C129.939 7.4307 130.244 7.73037 130.244 8.10219V9.37856C130.244 10.05 131.134 10.3053 131.5 9.73928C132.566 8.09664 134.223 7.04224 136.556 7.04224C136.866 7.04224 137.193 7.05888 137.542 7.11438C137.869 7.16432 138.106 7.4529 138.106 7.78032V12.8969C138.106 13.2965 137.756 13.6017 137.356 13.5629C137.119 13.5407 136.871 13.5296 136.601 13.5296C132.47 13.5296 130.249 16.1878 130.249 19.8615V27.0869C130.249 27.4587 129.945 27.7584 129.567 27.7584H124.067C123.689 27.7584 123.385 27.4587 123.385 27.0869V8.10219C123.385 7.73037 123.689 7.4307 124.067 7.4307H124.061Z"
            fill="white" />
        <path
            d="M0.845382 7.43073H6.01912C6.4869 7.43073 6.8645 7.80254 6.8645 8.26315V9.34529H6.98286C7.14066 8.99568 9.08504 7.03671 12.6976 7.03671C17.3022 7.03671 22.4646 10.4774 22.4646 17.5918C22.4646 24.7062 17.3022 28.1469 12.6976 28.1469C9.08504 28.1469 7.14066 26.1935 6.98286 25.8383H6.8645V34.3457C6.8645 34.8063 6.4869 35.1781 6.01912 35.1781H0.845382C0.377604 35.1781 0 34.8063 0 34.3457V8.26315C0 7.80254 0.377604 7.43073 0.845382 7.43073ZM11.2323 22.1701C13.6163 22.1701 15.7185 20.4498 15.7185 17.5974C15.7185 14.7449 13.6163 13.0246 11.2323 13.0246C8.84833 13.0246 6.7067 14.7061 6.7067 17.5974C6.7067 20.4886 8.76943 22.1701 11.2323 22.1701Z"
            fill="white" />
        <path
            d="M165.271 7.38632H150.308C148.801 7.38632 147.58 8.58886 147.58 10.0723C147.58 11.5557 148.801 12.7582 150.308 12.7582H165.271C166.778 12.7582 167.999 11.5557 167.999 10.0723C167.999 8.58886 166.778 7.38632 165.271 7.38632Z"
            fill="#F7D300" />
        <path
            d="M165.271 14.8726H158.327C156.821 14.8726 155.6 16.0751 155.6 17.5585C155.6 19.0419 156.821 20.2444 158.327 20.2444H165.271C166.777 20.2444 167.999 19.0419 167.999 17.5585C167.999 16.0751 166.777 14.8726 165.271 14.8726Z"
            fill="#F7D300" />
        <path
            d="M165.271 22.3588H150.308C148.801 22.3588 147.58 23.5613 147.58 25.0447C147.58 26.5281 148.801 27.7307 150.308 27.7307H165.271C166.778 27.7307 167.999 26.5281 167.999 25.0447C167.999 23.5613 166.778 22.3588 165.271 22.3588Z"
            fill="#F7D300" />
    </g>
    <defs>
        <clipPath id="clip0_547_1110">
            <rect width="168" height="35.1892" fill="white" />
        </clipPath>
    </defs>
</svg>
    