<svg width="60" height="46" viewBox="0 0 60 46" fill="none" xmlns="http://www.w3.org/2000/svg">
<g id="Group">
<path id="Vector" d="M57.6599 0H2.23515C1.00071 0 0 1.00071 0 2.23515V43.7648C0 44.9993 1.00071 46 2.23515 46H57.6599C58.8943 46 59.895 44.9993 59.895 43.7648V2.23515C59.895 1.00071 58.8943 0 57.6599 0Z" fill="#F7D300"/>
<g id="Group_2">
<g id="Group_3">
<path id="Vector_2" d="M48.0141 11.8447H35.7924C34.2081 11.8447 32.9238 13.1291 32.9238 14.7134C32.9238 16.2977 34.2081 17.582 35.7924 17.582H48.0141C49.5984 17.582 50.8827 16.2977 50.8827 14.7134C50.8827 13.1291 49.5984 11.8447 48.0141 11.8447Z" fill="black"/>
<path id="Vector_3" d="M48.0148 19.1897H42.8452C41.2609 19.1897 39.9766 20.474 39.9766 22.0584C39.9766 23.6427 41.2609 24.927 42.8452 24.927H48.0148C49.5991 24.927 50.8834 23.6427 50.8834 22.0584C50.8834 20.474 49.5991 19.1897 48.0148 19.1897Z" fill="black"/>
<path id="Vector_4" d="M48.0141 26.5347H35.7924C34.2081 26.5347 32.9238 27.819 32.9238 29.4033C32.9238 30.9876 34.2081 32.272 35.7924 32.272H48.0141C49.5984 32.272 50.8827 30.9876 50.8827 29.4033C50.8827 27.819 49.5984 26.5347 48.0141 26.5347Z" fill="black"/>
</g>
<path id="Vector_5" d="M28.4291 14.7735C26.5585 12.9089 23.9826 11.7494 21.1259 11.7494C19.5242 11.7494 18.0003 12.114 16.6496 12.7654V11.6538C16.6496 11.3371 16.3926 11.0801 16.0759 11.0801H10.7749C10.4581 11.0801 10.2012 11.3371 10.2012 11.6538V36.4676C10.2012 36.7844 10.4581 37.0414 10.7749 37.0414H16.0759C16.3926 37.0414 16.6496 36.7844 16.6496 36.4676V31.3818C18.0062 32.0332 19.5242 32.3977 21.1259 32.3977C23.9826 32.3977 26.5585 31.2443 28.4291 29.3737C30.2937 27.5031 31.4531 24.9273 31.4531 22.0706C31.4531 19.2139 30.2997 16.6321 28.4291 14.7675V14.7735ZM21.1259 26.0987C18.9027 26.0987 17.1038 24.2938 17.1038 22.0766C17.1038 19.8594 18.9027 18.0545 21.1259 18.0545C23.3491 18.0545 25.148 19.8534 25.148 22.0766C25.148 24.2998 23.3491 26.0987 21.1259 26.0987Z" fill="black"/>
</g>
</g>
</svg>
