<svg width="496" height="186" viewBox="0 0 496 186" fill="none" xmlns="http://www.w3.org/2000/svg">
<path d="M42.1136 60.5455C42.1136 64.3523 41.392 67.5909 39.9489 70.2614C38.517 72.9318 36.5625 74.9716 34.0852 76.3807C31.6193 77.7784 28.8466 78.4773 25.767 78.4773C22.6648 78.4773 19.8807 77.7727 17.4148 76.3636C14.9489 74.9545 13 72.9148 11.5682 70.2443C10.1364 67.5739 9.42045 64.3409 9.42045 60.5455C9.42045 56.7386 10.1364 53.5 11.5682 50.8295C13 48.1591 14.9489 46.125 17.4148 44.7273C19.8807 43.3182 22.6648 42.6136 25.767 42.6136C28.8466 42.6136 31.6193 43.3182 34.0852 44.7273C36.5625 46.125 38.517 48.1591 39.9489 50.8295C41.392 53.5 42.1136 56.7386 42.1136 60.5455ZM34.6307 60.5455C34.6307 58.0795 34.2614 56 33.5227 54.3068C32.7955 52.6136 31.767 51.3295 30.4375 50.4545C29.108 49.5795 27.5511 49.142 25.767 49.142C23.983 49.142 22.4261 49.5795 21.0966 50.4545C19.767 51.3295 18.733 52.6136 17.9943 54.3068C17.267 56 16.9034 58.0795 16.9034 60.5455C16.9034 63.0114 17.267 65.0909 17.9943 66.7841C18.733 68.4773 19.767 69.7614 21.0966 70.6364C22.4261 71.5114 23.983 71.9489 25.767 71.9489C27.5511 71.9489 29.108 71.5114 30.4375 70.6364C31.767 69.7614 32.7955 68.4773 33.5227 66.7841C34.2614 65.0909 34.6307 63.0114 34.6307 60.5455ZM82.2581 59.2841L75.6103 59.6932C75.4967 59.125 75.2524 58.6136 74.8774 58.1591C74.5024 57.6932 74.0081 57.3239 73.3944 57.0511C72.7922 56.767 72.0706 56.625 71.2297 56.625C70.1047 56.625 69.1558 56.8636 68.3831 57.3409C67.6103 57.8068 67.224 58.4318 67.224 59.2159C67.224 59.8409 67.474 60.3693 67.974 60.8011C68.474 61.233 69.3319 61.5795 70.5478 61.8409L75.2865 62.7955C77.8319 63.3182 79.7297 64.1591 80.9797 65.3182C82.2297 66.4773 82.8547 68 82.8547 69.8864C82.8547 71.6023 82.349 73.108 81.3376 74.4034C80.3376 75.6989 78.9626 76.7102 77.2126 77.4375C75.474 78.1534 73.4683 78.5114 71.1956 78.5114C67.7297 78.5114 64.9683 77.7898 62.9115 76.3466C60.866 74.892 59.6672 72.9148 59.3149 70.4148L66.4569 70.0398C66.6728 71.0966 67.1956 71.9034 68.0251 72.4602C68.8547 73.0057 69.9172 73.2784 71.2126 73.2784C72.4853 73.2784 73.5081 73.0341 74.2808 72.5455C75.0649 72.0455 75.4626 71.4034 75.474 70.6193C75.4626 69.9602 75.1842 69.4205 74.6387 69C74.0933 68.5682 73.2524 68.2386 72.116 68.0114L67.5819 67.108C65.0251 66.5966 63.1217 65.7102 61.8717 64.4489C60.6331 63.1875 60.0137 61.5795 60.0137 59.625C60.0137 57.9432 60.4683 56.4943 61.3774 55.2784C62.2978 54.0625 63.5876 53.125 65.2467 52.4659C66.9172 51.8068 68.8717 51.4773 71.1103 51.4773C74.4172 51.4773 77.0194 52.1761 78.9172 53.5739C80.8262 54.9716 81.9399 56.875 82.2581 59.2841ZM100.319 78.5114C97.6257 78.5114 95.3076 77.9659 93.3644 76.875C91.4326 75.7727 89.9439 74.2159 88.8985 72.2045C87.853 70.1818 87.3303 67.7898 87.3303 65.0284C87.3303 62.3352 87.853 59.9716 88.8985 57.9375C89.9439 55.9034 91.4155 54.3182 93.3132 53.1818C95.2223 52.0455 97.461 51.4773 100.029 51.4773C101.756 51.4773 103.364 51.7557 104.853 52.3125C106.353 52.858 107.66 53.6818 108.773 54.7841C109.898 55.8864 110.773 57.2727 111.398 58.9432C112.023 60.6023 112.336 62.5455 112.336 64.7727V66.767H90.228V62.267H105.501C105.501 61.2216 105.273 60.2955 104.819 59.4886C104.364 58.6818 103.734 58.0511 102.927 57.5966C102.131 57.1307 101.205 56.8977 100.148 56.8977C99.0462 56.8977 98.0689 57.1534 97.2166 57.6648C96.3757 58.1648 95.7166 58.8409 95.2394 59.6932C94.7621 60.5341 94.5178 61.4716 94.5064 62.5057V66.7841C94.5064 68.0795 94.7451 69.1989 95.2223 70.142C95.711 71.0852 96.3985 71.8125 97.2848 72.3239C98.1712 72.8352 99.2223 73.0909 100.438 73.0909C101.245 73.0909 101.984 72.9773 102.654 72.75C103.325 72.5227 103.898 72.1818 104.376 71.7273C104.853 71.2727 105.217 70.7159 105.467 70.0568L112.183 70.5C111.842 72.1136 111.143 73.5227 110.086 74.7273C109.041 75.9205 107.688 76.8523 106.029 77.5227C104.381 78.1818 102.478 78.5114 100.319 78.5114ZM129.83 88.3636C127.478 88.3636 125.461 88.0398 123.779 87.392C122.108 86.7557 120.779 85.8864 119.79 84.7841C118.802 83.6818 118.16 82.4432 117.864 81.0682L124.58 80.1648C124.785 80.6875 125.108 81.1761 125.552 81.6307C125.995 82.0852 126.58 82.4489 127.307 82.7216C128.046 83.0057 128.944 83.1477 130.001 83.1477C131.58 83.1477 132.881 82.7614 133.904 81.9886C134.938 81.2273 135.455 79.9489 135.455 78.1534V73.3636H135.148C134.83 74.0909 134.353 74.7784 133.716 75.4261C133.08 76.0739 132.262 76.6023 131.262 77.0114C130.262 77.4205 129.069 77.625 127.682 77.625C125.716 77.625 123.927 77.1705 122.313 76.2614C120.711 75.3409 119.432 73.9375 118.478 72.0511C117.535 70.1534 117.063 67.7557 117.063 64.858C117.063 61.892 117.546 59.4148 118.512 57.4261C119.478 55.4375 120.762 53.9489 122.364 52.9602C123.978 51.9716 125.745 51.4773 127.665 51.4773C129.131 51.4773 130.358 51.7273 131.347 52.2273C132.336 52.7159 133.131 53.3295 133.733 54.0682C134.347 54.7955 134.819 55.5114 135.148 56.2159H135.421V51.8182H142.631V78.2557C142.631 80.483 142.086 82.3466 140.995 83.8466C139.904 85.3466 138.393 86.4716 136.461 87.2216C134.54 87.983 132.33 88.3636 129.83 88.3636ZM129.983 72.1705C131.154 72.1705 132.143 71.8807 132.949 71.3011C133.768 70.7102 134.393 69.8693 134.824 68.7784C135.268 67.6761 135.489 66.358 135.489 64.8239C135.489 63.2898 135.273 61.9602 134.841 60.8352C134.41 59.6989 133.785 58.8182 132.966 58.1932C132.148 57.5682 131.154 57.2557 129.983 57.2557C128.79 57.2557 127.785 57.5795 126.966 58.2273C126.148 58.8636 125.529 59.75 125.108 60.8864C124.688 62.0227 124.478 63.3352 124.478 64.8239C124.478 66.3352 124.688 67.642 125.108 68.7443C125.54 69.8352 126.16 70.6818 126.966 71.2841C127.785 71.875 128.79 72.1705 129.983 72.1705ZM149.37 78V51.8182H156.409V56.3864H156.682C157.159 54.7614 157.961 53.5341 159.086 52.7045C160.211 51.8636 161.506 51.4432 162.972 51.4432C163.336 51.4432 163.728 51.4659 164.148 51.5114C164.568 51.5568 164.938 51.6193 165.256 51.6989V58.142C164.915 58.0398 164.443 57.9489 163.841 57.8693C163.239 57.7898 162.688 57.75 162.188 57.75C161.12 57.75 160.165 57.983 159.324 58.4489C158.495 58.9034 157.836 59.5398 157.347 60.358C156.87 61.1761 156.631 62.1193 156.631 63.1875V78H149.37ZM180.683 78.5114C177.99 78.5114 175.672 77.9659 173.729 76.875C171.797 75.7727 170.308 74.2159 169.263 72.2045C168.217 70.1818 167.695 67.7898 167.695 65.0284C167.695 62.3352 168.217 59.9716 169.263 57.9375C170.308 55.9034 171.78 54.3182 173.678 53.1818C175.587 52.0455 177.825 51.4773 180.394 51.4773C182.121 51.4773 183.729 51.7557 185.217 52.3125C186.717 52.858 188.024 53.6818 189.138 54.7841C190.263 55.8864 191.138 57.2727 191.763 58.9432C192.388 60.6023 192.7 62.5455 192.7 64.7727V66.767H170.592V62.267H185.865C185.865 61.2216 185.638 60.2955 185.183 59.4886C184.729 58.6818 184.098 58.0511 183.291 57.5966C182.496 57.1307 181.57 56.8977 180.513 56.8977C179.411 56.8977 178.433 57.1534 177.581 57.6648C176.74 58.1648 176.081 58.8409 175.604 59.6932C175.126 60.5341 174.882 61.4716 174.871 62.5057V66.7841C174.871 68.0795 175.109 69.1989 175.587 70.142C176.075 71.0852 176.763 71.8125 177.649 72.3239C178.536 72.8352 179.587 73.0909 180.803 73.0909C181.609 73.0909 182.348 72.9773 183.019 72.75C183.689 72.5227 184.263 72.1818 184.74 71.7273C185.217 71.2727 185.581 70.7159 185.831 70.0568L192.547 70.5C192.206 72.1136 191.507 73.5227 190.45 74.7273C189.405 75.9205 188.053 76.8523 186.394 77.5227C184.746 78.1818 182.842 78.5114 180.683 78.5114ZM208.047 78.4261C206.058 78.4261 204.257 77.9148 202.643 76.892C201.041 75.858 199.768 74.3409 198.825 72.3409C197.893 70.3295 197.427 67.8636 197.427 64.9432C197.427 61.9432 197.91 59.4489 198.876 57.4602C199.842 55.4602 201.126 53.9659 202.729 52.9773C204.342 51.9773 206.109 51.4773 208.03 51.4773C209.496 51.4773 210.717 51.7273 211.694 52.2273C212.683 52.7159 213.479 53.3295 214.081 54.0682C214.694 54.7955 215.16 55.5114 215.479 56.2159H215.7V43.0909H222.944V78H215.785V73.8068H215.479C215.138 74.5341 214.655 75.2557 214.03 75.9716C213.416 76.6761 212.615 77.2614 211.626 77.7273C210.649 78.1932 209.456 78.4261 208.047 78.4261ZM210.348 72.6477C211.518 72.6477 212.507 72.3295 213.314 71.6932C214.132 71.0455 214.757 70.142 215.189 68.983C215.632 67.8239 215.854 66.4659 215.854 64.9091C215.854 63.3523 215.638 62 215.206 60.8523C214.774 59.7045 214.149 58.8182 213.331 58.1932C212.513 57.5682 211.518 57.2557 210.348 57.2557C209.155 57.2557 208.149 57.5795 207.331 58.2273C206.513 58.875 205.893 59.7727 205.473 60.9205C205.052 62.0682 204.842 63.3977 204.842 64.9091C204.842 66.4318 205.052 67.7784 205.473 68.9489C205.905 70.108 206.524 71.017 207.331 71.6761C208.149 72.3239 209.155 72.6477 210.348 72.6477ZM241.704 78.5114C239.056 78.5114 236.767 77.9489 234.835 76.8239C232.914 75.6875 231.431 74.108 230.386 72.0852C229.341 70.0511 228.818 67.6932 228.818 65.0114C228.818 62.3068 229.341 59.9432 230.386 57.9205C231.431 55.8864 232.914 54.3068 234.835 53.1818C236.767 52.0455 239.056 51.4773 241.704 51.4773C244.352 51.4773 246.636 52.0455 248.556 53.1818C250.488 54.3068 251.977 55.8864 253.022 57.9205C254.068 59.9432 254.591 62.3068 254.591 65.0114C254.591 67.6932 254.068 70.0511 253.022 72.0852C251.977 74.108 250.488 75.6875 248.556 76.8239C246.636 77.9489 244.352 78.5114 241.704 78.5114ZM241.738 72.8864C242.943 72.8864 243.948 72.5455 244.755 71.8636C245.562 71.1705 246.17 70.2273 246.579 69.0341C247 67.8409 247.21 66.483 247.21 64.9602C247.21 63.4375 247 62.0795 246.579 60.8864C246.17 59.6932 245.562 58.75 244.755 58.0568C243.948 57.3636 242.943 57.017 241.738 57.017C240.522 57.017 239.5 57.3636 238.67 58.0568C237.852 58.75 237.233 59.6932 236.812 60.8864C236.403 62.0795 236.198 63.4375 236.198 64.9602C236.198 66.483 236.403 67.8409 236.812 69.0341C237.233 70.2273 237.852 71.1705 238.67 71.8636C239.5 72.5455 240.522 72.8864 241.738 72.8864ZM281.989 78.4261C280.001 78.4261 278.199 77.9148 276.586 76.892C274.984 75.858 273.711 74.3409 272.768 72.3409C271.836 70.3295 271.37 67.8636 271.37 64.9432C271.37 61.9432 271.853 59.4489 272.819 57.4602C273.785 55.4602 275.069 53.9659 276.671 52.9773C278.285 51.9773 280.052 51.4773 281.972 51.4773C283.438 51.4773 284.66 51.7273 285.637 52.2273C286.626 52.7159 287.421 53.3295 288.023 54.0682C288.637 54.7955 289.103 55.5114 289.421 56.2159H289.643V43.0909H296.887V78H289.728V73.8068H289.421C289.08 74.5341 288.597 75.2557 287.972 75.9716C287.359 76.6761 286.557 77.2614 285.569 77.7273C284.591 78.1932 283.398 78.4261 281.989 78.4261ZM284.29 72.6477C285.461 72.6477 286.449 72.3295 287.256 71.6932C288.074 71.0455 288.699 70.142 289.131 68.983C289.574 67.8239 289.796 66.4659 289.796 64.9091C289.796 63.3523 289.58 62 289.148 60.8523C288.716 59.7045 288.091 58.8182 287.273 58.1932C286.455 57.5682 285.461 57.2557 284.29 57.2557C283.097 57.2557 282.091 57.5795 281.273 58.2273C280.455 58.875 279.836 59.7727 279.415 60.9205C278.995 62.0682 278.785 63.3977 278.785 64.9091C278.785 66.4318 278.995 67.7784 279.415 68.9489C279.847 70.108 280.466 71.017 281.273 71.6761C282.091 72.3239 283.097 72.6477 284.29 72.6477ZM315.647 78.5114C312.999 78.5114 310.709 77.9489 308.777 76.8239C306.857 75.6875 305.374 74.108 304.328 72.0852C303.283 70.0511 302.76 67.6932 302.76 65.0114C302.76 62.3068 303.283 59.9432 304.328 57.9205C305.374 55.8864 306.857 54.3068 308.777 53.1818C310.709 52.0455 312.999 51.4773 315.647 51.4773C318.294 51.4773 320.578 52.0455 322.499 53.1818C324.431 54.3068 325.919 55.8864 326.965 57.9205C328.01 59.9432 328.533 62.3068 328.533 65.0114C328.533 67.6932 328.01 70.0511 326.965 72.0852C325.919 74.108 324.431 75.6875 322.499 76.8239C320.578 77.9489 318.294 78.5114 315.647 78.5114ZM315.681 72.8864C316.885 72.8864 317.891 72.5455 318.698 71.8636C319.505 71.1705 320.113 70.2273 320.522 69.0341C320.942 67.8409 321.152 66.483 321.152 64.9602C321.152 63.4375 320.942 62.0795 320.522 60.8864C320.113 59.6932 319.505 58.75 318.698 58.0568C317.891 57.3636 316.885 57.017 315.681 57.017C314.465 57.017 313.442 57.3636 312.613 58.0568C311.794 58.75 311.175 59.6932 310.755 60.8864C310.346 62.0795 310.141 63.4375 310.141 64.9602C310.141 66.483 310.346 67.8409 310.755 69.0341C311.175 70.2273 311.794 71.1705 312.613 71.8636C313.442 72.5455 314.465 72.8864 315.681 72.8864ZM31.6818 108.284L25.0341 108.693C24.9205 108.125 24.6761 107.614 24.3011 107.159C23.9261 106.693 23.4318 106.324 22.8182 106.051C22.2159 105.767 21.4943 105.625 20.6534 105.625C19.5284 105.625 18.5795 105.864 17.8068 106.341C17.0341 106.807 16.6477 107.432 16.6477 108.216C16.6477 108.841 16.8977 109.369 17.3977 109.801C17.8977 110.233 18.7557 110.58 19.9716 110.841L24.7102 111.795C27.2557 112.318 29.1534 113.159 30.4034 114.318C31.6534 115.477 32.2784 117 32.2784 118.886C32.2784 120.602 31.7727 122.108 30.7614 123.403C29.7614 124.699 28.3864 125.71 26.6364 126.438C24.8977 127.153 22.892 127.511 20.6193 127.511C17.1534 127.511 14.392 126.79 12.3352 125.347C10.2898 123.892 9.09091 121.915 8.73864 119.415L15.8807 119.04C16.0966 120.097 16.6193 120.903 17.4489 121.46C18.2784 122.006 19.3409 122.278 20.6364 122.278C21.9091 122.278 22.9318 122.034 23.7045 121.545C24.4886 121.045 24.8864 120.403 24.8977 119.619C24.8864 118.96 24.608 118.42 24.0625 118C23.517 117.568 22.6761 117.239 21.5398 117.011L17.0057 116.108C14.4489 115.597 12.5455 114.71 11.2955 113.449C10.0568 112.187 9.4375 110.58 9.4375 108.625C9.4375 106.943 9.89205 105.494 10.8011 104.278C11.7216 103.062 13.0114 102.125 14.6705 101.466C16.3409 100.807 18.2955 100.477 20.5341 100.477C23.8409 100.477 26.4432 101.176 28.3409 102.574C30.25 103.972 31.3636 105.875 31.6818 108.284ZM54.6006 115.852V100.818H61.862V127H54.8904V122.244H54.6177C54.0268 123.778 53.0438 125.011 51.6688 125.943C50.3052 126.875 48.6404 127.341 46.6745 127.341C44.9245 127.341 43.3847 126.943 42.0552 126.148C40.7256 125.352 39.6859 124.222 38.9359 122.756C38.1972 121.29 37.8222 119.534 37.8109 117.489V100.818H45.0722V116.193C45.0836 117.739 45.4984 118.96 46.3165 119.858C47.1347 120.756 48.2313 121.205 49.6063 121.205C50.4813 121.205 51.2995 121.006 52.0609 120.608C52.8222 120.199 53.4359 119.597 53.9018 118.801C54.379 118.006 54.612 117.023 54.6006 115.852ZM80.4598 127.511C77.778 127.511 75.4711 126.943 73.5393 125.807C71.6189 124.659 70.1416 123.068 69.1075 121.034C68.0848 119 67.5734 116.659 67.5734 114.011C67.5734 111.33 68.0905 108.977 69.1245 106.955C70.17 104.92 71.653 103.335 73.5734 102.199C75.4939 101.051 77.778 100.477 80.4257 100.477C82.7098 100.477 84.7098 100.892 86.4257 101.722C88.1416 102.551 89.4995 103.716 90.4995 105.216C91.4995 106.716 92.0507 108.477 92.153 110.5H85.3007C85.1075 109.193 84.5961 108.142 83.7666 107.347C82.9484 106.54 81.8745 106.136 80.545 106.136C79.42 106.136 78.437 106.443 77.5961 107.057C76.7666 107.659 76.1189 108.54 75.653 109.699C75.187 110.858 74.9541 112.261 74.9541 113.909C74.9541 115.58 75.1814 117 75.6359 118.17C76.1018 119.341 76.7552 120.233 77.5961 120.847C78.437 121.46 79.42 121.767 80.545 121.767C81.3745 121.767 82.1189 121.597 82.778 121.256C83.4484 120.915 83.9995 120.42 84.4314 119.773C84.8745 119.114 85.1643 118.324 85.3007 117.403H92.153C92.0393 119.403 91.4939 121.165 90.5166 122.688C89.5507 124.199 88.2155 125.381 86.5109 126.233C84.8064 127.085 82.7893 127.511 80.4598 127.511ZM109.694 127.511C107.001 127.511 104.683 126.966 102.739 125.875C100.808 124.773 99.3189 123.216 98.2735 121.205C97.228 119.182 96.7053 116.79 96.7053 114.028C96.7053 111.335 97.228 108.972 98.2735 106.938C99.3189 104.903 100.791 103.318 102.688 102.182C104.597 101.045 106.836 100.477 109.404 100.477C111.131 100.477 112.739 100.756 114.228 101.312C115.728 101.858 117.035 102.682 118.148 103.784C119.273 104.886 120.148 106.273 120.773 107.943C121.398 109.602 121.711 111.545 121.711 113.773V115.767H99.603V111.267H114.876C114.876 110.222 114.648 109.295 114.194 108.489C113.739 107.682 113.109 107.051 112.302 106.597C111.506 106.131 110.58 105.898 109.523 105.898C108.421 105.898 107.444 106.153 106.592 106.665C105.751 107.165 105.092 107.841 104.614 108.693C104.137 109.534 103.893 110.472 103.881 111.506V115.784C103.881 117.08 104.12 118.199 104.597 119.142C105.086 120.085 105.773 120.812 106.66 121.324C107.546 121.835 108.597 122.091 109.813 122.091C110.62 122.091 111.359 121.977 112.029 121.75C112.7 121.523 113.273 121.182 113.751 120.727C114.228 120.273 114.592 119.716 114.842 119.057L121.558 119.5C121.217 121.114 120.518 122.523 119.461 123.727C118.416 124.92 117.063 125.852 115.404 126.523C113.756 127.182 111.853 127.511 109.694 127.511ZM149.194 108.284L142.546 108.693C142.432 108.125 142.188 107.614 141.813 107.159C141.438 106.693 140.944 106.324 140.33 106.051C139.728 105.767 139.006 105.625 138.165 105.625C137.04 105.625 136.091 105.864 135.319 106.341C134.546 106.807 134.16 107.432 134.16 108.216C134.16 108.841 134.41 109.369 134.91 109.801C135.41 110.233 136.268 110.58 137.483 110.841L142.222 111.795C144.768 112.318 146.665 113.159 147.915 114.318C149.165 115.477 149.79 117 149.79 118.886C149.79 120.602 149.285 122.108 148.273 123.403C147.273 124.699 145.898 125.71 144.148 126.438C142.41 127.153 140.404 127.511 138.131 127.511C134.665 127.511 131.904 126.79 129.847 125.347C127.802 123.892 126.603 121.915 126.251 119.415L133.393 119.04C133.608 120.097 134.131 120.903 134.961 121.46C135.79 122.006 136.853 122.278 138.148 122.278C139.421 122.278 140.444 122.034 141.216 121.545C142.001 121.045 142.398 120.403 142.41 119.619C142.398 118.96 142.12 118.42 141.574 118C141.029 117.568 140.188 117.239 139.052 117.011L134.518 116.108C131.961 115.597 130.057 114.71 128.807 113.449C127.569 112.187 126.949 110.58 126.949 108.625C126.949 106.943 127.404 105.494 128.313 104.278C129.233 103.062 130.523 102.125 132.182 101.466C133.853 100.807 135.807 100.477 138.046 100.477C141.353 100.477 143.955 101.176 145.853 102.574C147.762 103.972 148.876 105.875 149.194 108.284ZM177.107 108.284L170.459 108.693C170.345 108.125 170.101 107.614 169.726 107.159C169.351 106.693 168.857 106.324 168.243 106.051C167.641 105.767 166.919 105.625 166.078 105.625C164.953 105.625 164.005 105.864 163.232 106.341C162.459 106.807 162.073 107.432 162.073 108.216C162.073 108.841 162.323 109.369 162.823 109.801C163.323 110.233 164.181 110.58 165.397 110.841L170.135 111.795C172.681 112.318 174.578 113.159 175.828 114.318C177.078 115.477 177.703 117 177.703 118.886C177.703 120.602 177.198 122.108 176.186 123.403C175.186 124.699 173.811 125.71 172.061 126.438C170.323 127.153 168.317 127.511 166.044 127.511C162.578 127.511 159.817 126.79 157.76 125.347C155.715 123.892 154.516 121.915 154.164 119.415L161.306 119.04C161.522 120.097 162.044 120.903 162.874 121.46C163.703 122.006 164.766 122.278 166.061 122.278C167.334 122.278 168.357 122.034 169.13 121.545C169.914 121.045 170.311 120.403 170.323 119.619C170.311 118.96 170.033 118.42 169.488 118C168.942 117.568 168.101 117.239 166.965 117.011L162.431 116.108C159.874 115.597 157.97 114.71 156.72 113.449C155.482 112.187 154.863 110.58 154.863 108.625C154.863 106.943 155.317 105.494 156.226 104.278C157.147 103.062 158.436 102.125 160.095 101.466C161.766 100.807 163.72 100.477 165.959 100.477C169.266 100.477 171.868 101.176 173.766 102.574C175.675 103.972 176.789 105.875 177.107 108.284ZM195.065 127.511C192.418 127.511 190.128 126.949 188.196 125.824C186.276 124.687 184.793 123.108 183.747 121.085C182.702 119.051 182.179 116.693 182.179 114.011C182.179 111.307 182.702 108.943 183.747 106.92C184.793 104.886 186.276 103.307 188.196 102.182C190.128 101.045 192.418 100.477 195.065 100.477C197.713 100.477 199.997 101.045 201.918 102.182C203.849 103.307 205.338 104.886 206.384 106.92C207.429 108.943 207.952 111.307 207.952 114.011C207.952 116.693 207.429 119.051 206.384 121.085C205.338 123.108 203.849 124.687 201.918 125.824C199.997 126.949 197.713 127.511 195.065 127.511ZM195.099 121.886C196.304 121.886 197.31 121.545 198.117 120.864C198.923 120.17 199.531 119.227 199.94 118.034C200.361 116.841 200.571 115.483 200.571 113.96C200.571 112.438 200.361 111.08 199.94 109.886C199.531 108.693 198.923 107.75 198.117 107.057C197.31 106.364 196.304 106.017 195.099 106.017C193.884 106.017 192.861 106.364 192.031 107.057C191.213 107.75 190.594 108.693 190.173 109.886C189.764 111.08 189.56 112.438 189.56 113.96C189.56 115.483 189.764 116.841 190.173 118.034C190.594 119.227 191.213 120.17 192.031 120.864C192.861 121.545 193.884 121.886 195.099 121.886ZM235.35 127.426C233.362 127.426 231.561 126.915 229.947 125.892C228.345 124.858 227.072 123.341 226.129 121.341C225.197 119.33 224.731 116.864 224.731 113.943C224.731 110.943 225.214 108.449 226.18 106.46C227.146 104.46 228.43 102.966 230.032 101.977C231.646 100.977 233.413 100.477 235.333 100.477C236.799 100.477 238.021 100.727 238.998 101.227C239.987 101.716 240.782 102.33 241.385 103.068C241.998 103.795 242.464 104.511 242.782 105.216H243.004V92.0909H250.248V127H243.089V122.807H242.782C242.441 123.534 241.958 124.256 241.333 124.972C240.72 125.676 239.919 126.261 238.93 126.727C237.953 127.193 236.76 127.426 235.35 127.426ZM237.652 121.648C238.822 121.648 239.811 121.33 240.617 120.693C241.436 120.045 242.061 119.142 242.492 117.983C242.936 116.824 243.157 115.466 243.157 113.909C243.157 112.352 242.941 111 242.51 109.852C242.078 108.705 241.453 107.818 240.635 107.193C239.816 106.568 238.822 106.256 237.652 106.256C236.458 106.256 235.453 106.58 234.635 107.227C233.816 107.875 233.197 108.773 232.777 109.92C232.356 111.068 232.146 112.398 232.146 113.909C232.146 115.432 232.356 116.778 232.777 117.949C233.208 119.108 233.828 120.017 234.635 120.676C235.453 121.324 236.458 121.648 237.652 121.648ZM269.008 127.511C266.36 127.511 264.07 126.949 262.139 125.824C260.218 124.687 258.735 123.108 257.69 121.085C256.644 119.051 256.122 116.693 256.122 114.011C256.122 111.307 256.644 108.943 257.69 106.92C258.735 104.886 260.218 103.307 262.139 102.182C264.07 101.045 266.36 100.477 269.008 100.477C271.656 100.477 273.94 101.045 275.86 102.182C277.792 103.307 279.281 104.886 280.326 106.92C281.372 108.943 281.894 111.307 281.894 114.011C281.894 116.693 281.372 119.051 280.326 121.085C279.281 123.108 277.792 124.687 275.86 125.824C273.94 126.949 271.656 127.511 269.008 127.511ZM269.042 121.886C270.247 121.886 271.252 121.545 272.059 120.864C272.866 120.17 273.474 119.227 273.883 118.034C274.303 116.841 274.514 115.483 274.514 113.96C274.514 112.438 274.303 111.08 273.883 109.886C273.474 108.693 272.866 107.75 272.059 107.057C271.252 106.364 270.247 106.017 269.042 106.017C267.826 106.017 266.803 106.364 265.974 107.057C265.156 107.75 264.536 108.693 264.116 109.886C263.707 111.08 263.502 112.438 263.502 113.96C263.502 115.483 263.707 116.841 264.116 118.034C264.536 119.227 265.156 120.17 265.974 120.864C266.803 121.545 267.826 121.886 269.042 121.886ZM305.799 127H297.89L309.941 92.0909H319.452L331.486 127H323.577L314.833 100.068H314.56L305.799 127ZM305.304 113.278H323.986V119.04H305.304V113.278ZM336.511 136.818V100.818H343.671V105.216H343.994C344.313 104.511 344.773 103.795 345.375 103.068C345.989 102.33 346.784 101.716 347.761 101.227C348.75 100.727 349.977 100.477 351.443 100.477C353.352 100.477 355.114 100.977 356.727 101.977C358.341 102.966 359.631 104.46 360.597 106.46C361.563 108.449 362.046 110.943 362.046 113.943C362.046 116.864 361.574 119.33 360.631 121.341C359.699 123.341 358.426 124.858 356.813 125.892C355.21 126.915 353.415 127.426 351.426 127.426C350.017 127.426 348.818 127.193 347.83 126.727C346.852 126.261 346.051 125.676 345.426 124.972C344.801 124.256 344.324 123.534 343.994 122.807H343.773V136.818H336.511ZM343.619 113.909C343.619 115.466 343.835 116.824 344.267 117.983C344.699 119.142 345.324 120.045 346.142 120.693C346.96 121.33 347.955 121.648 349.125 121.648C350.307 121.648 351.307 121.324 352.125 120.676C352.943 120.017 353.563 119.108 353.983 117.949C354.415 116.778 354.631 115.432 354.631 113.909C354.631 112.398 354.421 111.068 354 109.92C353.58 108.773 352.96 107.875 352.142 107.227C351.324 106.58 350.318 106.256 349.125 106.256C347.943 106.256 346.943 106.568 346.125 107.193C345.318 107.818 344.699 108.705 344.267 109.852C343.835 111 343.619 112.352 343.619 113.909ZM367.846 136.818V100.818H375.006V105.216H375.329C375.648 104.511 376.108 103.795 376.71 103.068C377.324 102.33 378.119 101.716 379.096 101.227C380.085 100.727 381.312 100.477 382.778 100.477C384.687 100.477 386.449 100.977 388.062 101.977C389.676 102.966 390.966 104.46 391.932 106.46C392.898 108.449 393.381 110.943 393.381 113.943C393.381 116.864 392.909 119.33 391.966 121.341C391.034 123.341 389.761 124.858 388.148 125.892C386.545 126.915 384.75 127.426 382.761 127.426C381.352 127.426 380.153 127.193 379.165 126.727C378.187 126.261 377.386 125.676 376.761 124.972C376.136 124.256 375.659 123.534 375.329 122.807H375.108V136.818H367.846ZM374.954 113.909C374.954 115.466 375.17 116.824 375.602 117.983C376.034 119.142 376.659 120.045 377.477 120.693C378.295 121.33 379.29 121.648 380.46 121.648C381.642 121.648 382.642 121.324 383.46 120.676C384.278 120.017 384.898 119.108 385.318 117.949C385.75 116.778 385.966 115.432 385.966 113.909C385.966 112.398 385.756 111.068 385.335 109.92C384.915 108.773 384.295 107.875 383.477 107.227C382.659 106.58 381.653 106.256 380.46 106.256C379.278 106.256 378.278 106.568 377.46 107.193C376.653 107.818 376.034 108.705 375.602 109.852C375.17 111 374.954 112.352 374.954 113.909ZM412.017 127.477C409.471 127.477 407.204 127.04 405.216 126.165C403.238 125.278 401.676 124.062 400.528 122.517C399.392 120.96 398.806 119.165 398.772 117.131H406.204C406.25 117.983 406.528 118.733 407.039 119.381C407.562 120.017 408.255 120.511 409.119 120.864C409.983 121.216 410.954 121.392 412.034 121.392C413.159 121.392 414.153 121.193 415.017 120.795C415.88 120.398 416.556 119.847 417.045 119.142C417.534 118.437 417.778 117.625 417.778 116.705C417.778 115.773 417.517 114.949 416.994 114.233C416.483 113.506 415.744 112.937 414.778 112.528C413.824 112.119 412.687 111.915 411.369 111.915H408.113V106.494H411.369C412.483 106.494 413.466 106.301 414.318 105.915C415.181 105.528 415.852 104.994 416.329 104.312C416.806 103.619 417.045 102.812 417.045 101.892C417.045 101.017 416.835 100.25 416.414 99.5909C416.005 98.9205 415.426 98.3977 414.676 98.0227C413.937 97.6477 413.074 97.4602 412.085 97.4602C411.085 97.4602 410.17 97.642 409.341 98.0057C408.511 98.358 407.846 98.8636 407.346 99.5227C406.846 100.182 406.579 100.955 406.545 101.841H399.471C399.505 99.8295 400.079 98.0568 401.193 96.5227C402.306 94.9886 403.806 93.7898 405.693 92.9261C407.591 92.0511 409.733 91.6136 412.119 91.6136C414.528 91.6136 416.636 92.0511 418.443 92.9261C420.25 93.8011 421.653 94.983 422.653 96.4716C423.664 97.9489 424.164 99.608 424.153 101.449C424.164 103.403 423.556 105.034 422.329 106.341C421.113 107.648 419.528 108.477 417.574 108.83V109.102C420.142 109.432 422.096 110.324 423.437 111.778C424.789 113.222 425.46 115.028 425.449 117.199C425.46 119.188 424.886 120.955 423.727 122.5C422.579 124.045 420.994 125.261 418.971 126.148C416.949 127.034 414.63 127.477 412.017 127.477Z" fill="black"/>
<path d="M14.6188 154.052C14.6188 154.885 14.4684 155.604 14.1677 156.211C13.8669 156.818 13.4544 157.285 12.93 157.614C12.4056 157.943 11.8067 158.108 11.1333 158.108C10.4598 158.108 9.86089 157.943 9.33652 157.614C8.81215 157.285 8.3996 156.818 8.09886 156.211C7.79812 155.604 7.64775 154.885 7.64775 154.052C7.64775 153.219 7.79812 152.499 8.09886 151.893C8.3996 151.286 8.81215 150.818 9.33652 150.489C9.86089 150.16 10.4598 149.996 11.1333 149.996C11.8067 149.996 12.4056 150.16 12.93 150.489C13.4544 150.818 13.8669 151.286 14.1677 151.893C14.4684 152.499 14.6188 153.219 14.6188 154.052ZM13.6934 154.052C13.6934 153.368 13.579 152.791 13.3503 152.321C13.1241 151.85 12.8169 151.494 12.4288 151.253C12.0432 151.011 11.6114 150.89 11.1333 150.89C10.6552 150.89 10.222 151.011 9.8339 151.253C9.44834 151.494 9.14117 151.85 8.9124 152.321C8.6862 152.791 8.5731 153.368 8.5731 154.052C8.5731 154.736 8.6862 155.313 8.9124 155.783C9.14117 156.253 9.44834 156.609 9.8339 156.851C10.222 157.093 10.6552 157.213 11.1333 157.213C11.6114 157.213 12.0432 157.093 12.4288 156.851C12.8169 156.609 13.1241 156.253 13.3503 155.783C13.579 155.313 13.6934 154.736 13.6934 154.052ZM26.9891 158V150.104H27.9453V153.62H32.1556V150.104H33.1118V158H32.1556V154.468H27.9453V158H26.9891ZM45.5431 154.052C45.5431 154.885 45.3928 155.604 45.092 156.211C44.7913 156.818 44.3787 157.285 43.8544 157.614C43.33 157.943 42.7311 158.108 42.0576 158.108C41.3842 158.108 40.7853 157.943 40.2609 157.614C39.7365 157.285 39.324 156.818 39.0232 156.211C38.7225 155.604 38.5721 154.885 38.5721 154.052C38.5721 153.219 38.7225 152.499 39.0232 151.893C39.324 151.286 39.7365 150.818 40.2609 150.489C40.7853 150.16 41.3842 149.996 42.0576 149.996C42.7311 149.996 43.33 150.16 43.8544 150.489C44.3787 150.818 44.7913 151.286 45.092 151.893C45.3928 152.499 45.5431 153.219 45.5431 154.052ZM44.6178 154.052C44.6178 153.368 44.5034 152.791 44.2746 152.321C44.0484 151.85 43.7413 151.494 43.3531 151.253C42.9676 151.011 42.5357 150.89 42.0576 150.89C41.5795 150.89 41.1464 151.011 40.7583 151.253C40.3727 151.494 40.0656 151.85 39.8368 152.321C39.6106 152.791 39.4975 153.368 39.4975 154.052C39.4975 154.736 39.6106 155.313 39.8368 155.783C40.0656 156.253 40.3727 156.609 40.7583 156.851C41.1464 157.093 41.5795 157.213 42.0576 157.213C42.5357 157.213 42.9676 157.093 43.3531 156.851C43.7413 156.609 44.0484 156.253 44.2746 155.783C44.5034 155.313 44.6178 154.736 44.6178 154.052ZM54.0282 150.104H54.9844V155.748C54.9844 156.252 54.8919 156.68 54.7068 157.032C54.5217 157.384 54.2608 157.652 53.9241 157.834C53.5874 158.017 53.1902 158.108 52.7327 158.108C52.3009 158.108 51.9166 158.03 51.5799 157.873C51.2431 157.713 50.9784 157.487 50.7856 157.194C50.5928 156.901 50.4964 156.553 50.4964 156.149H51.4372C51.4372 156.373 51.4925 156.568 51.603 156.735C51.7161 156.9 51.8703 157.028 52.0657 157.121C52.261 157.213 52.4834 157.26 52.7327 157.26C53.0077 157.26 53.2416 157.202 53.4344 157.086C53.6272 156.971 53.7737 156.801 53.874 156.577C53.9768 156.351 54.0282 156.075 54.0282 155.748V150.104ZM60.7551 158V150.104H65.5206V150.952H61.7113V153.62H65.2739V154.468H61.7113V157.152H65.5823V158H60.7551ZM72.3323 156.92L72.2707 157.337C72.227 157.63 72.1601 157.943 72.0702 158.278C71.9828 158.612 71.8915 158.927 71.7964 159.222C71.7013 159.518 71.6229 159.753 71.5612 159.928H70.8672C70.9006 159.763 70.9443 159.546 70.9983 159.276C71.0523 159.006 71.1062 158.704 71.1602 158.37C71.2168 158.039 71.263 157.699 71.299 157.352L71.3453 156.92H72.3323ZM84.4723 150.952V150.104H90.3946V150.952H87.9115V158H86.9553V150.952H84.4723ZM102.059 154.052C102.059 154.885 101.908 155.604 101.607 156.211C101.307 156.818 100.894 157.285 100.37 157.614C99.8454 157.943 99.2465 158.108 98.5731 158.108C97.8996 158.108 97.3007 157.943 96.7763 157.614C96.252 157.285 95.8394 156.818 95.5387 156.211C95.2379 155.604 95.0876 154.885 95.0876 154.052C95.0876 153.219 95.2379 152.499 95.5387 151.893C95.8394 151.286 96.252 150.818 96.7763 150.489C97.3007 150.16 97.8996 149.996 98.5731 149.996C99.2465 149.996 99.8454 150.16 100.37 150.489C100.894 150.818 101.307 151.286 101.607 151.893C101.908 152.499 102.059 153.219 102.059 154.052ZM101.133 154.052C101.133 153.368 101.019 152.791 100.79 152.321C100.564 151.85 100.257 151.494 99.8686 151.253C99.483 151.011 99.0512 150.89 98.5731 150.89C98.095 150.89 97.6619 151.011 97.2737 151.253C96.8882 151.494 96.581 151.85 96.3522 152.321C96.126 152.791 96.0129 153.368 96.0129 154.052C96.0129 154.736 96.126 155.313 96.3522 155.783C96.581 156.253 96.8882 156.609 97.2737 156.851C97.6619 157.093 98.095 157.213 98.5731 157.213C99.0512 157.213 99.483 157.093 99.8686 156.851C100.257 156.609 100.564 156.253 100.79 155.783C101.019 155.313 101.133 154.736 101.133 154.052ZM109.958 158H107.521V150.104H110.066C110.832 150.104 111.487 150.262 112.032 150.578C112.577 150.891 112.995 151.343 113.285 151.931C113.575 152.517 113.721 153.219 113.721 154.036C113.721 154.859 113.574 155.567 113.281 156.161C112.988 156.752 112.561 157.207 112.001 157.526C111.441 157.842 110.76 158 109.958 158ZM108.477 157.152H109.896C110.549 157.152 111.09 157.026 111.519 156.774C111.948 156.522 112.268 156.163 112.479 155.698C112.69 155.233 112.795 154.679 112.795 154.036C112.795 153.399 112.691 152.85 112.483 152.39C112.275 151.927 111.964 151.573 111.55 151.326C111.136 151.077 110.621 150.952 110.004 150.952H108.477V157.152ZM125.842 154.052C125.842 154.885 125.691 155.604 125.39 156.211C125.09 156.818 124.677 157.285 124.153 157.614C123.628 157.943 123.03 158.108 122.356 158.108C121.683 158.108 121.084 157.943 120.559 157.614C120.035 157.285 119.622 156.818 119.322 156.211C119.021 155.604 118.871 154.885 118.871 154.052C118.871 153.219 119.021 152.499 119.322 151.893C119.622 151.286 120.035 150.818 120.559 150.489C121.084 150.16 121.683 149.996 122.356 149.996C123.03 149.996 123.628 150.16 124.153 150.489C124.677 150.818 125.09 151.286 125.39 151.893C125.691 152.499 125.842 153.219 125.842 154.052ZM124.916 154.052C124.916 153.368 124.802 152.791 124.573 152.321C124.347 151.85 124.04 151.494 123.652 151.253C123.266 151.011 122.834 150.89 122.356 150.89C121.878 150.89 121.445 151.011 121.057 151.253C120.671 151.494 120.364 151.85 120.135 152.321C119.909 152.791 119.796 153.368 119.796 154.052C119.796 154.736 119.909 155.313 120.135 155.783C120.364 156.253 120.671 156.609 121.057 156.851C121.445 157.093 121.878 157.213 122.356 157.213C122.834 157.213 123.266 157.093 123.652 156.851C124.04 156.609 124.347 156.253 124.573 155.783C124.802 155.313 124.916 154.736 124.916 154.052ZM142.53 152.078C142.484 151.687 142.296 151.384 141.967 151.168C141.638 150.952 141.235 150.844 140.757 150.844C140.407 150.844 140.101 150.9 139.839 151.014C139.579 151.127 139.376 151.282 139.23 151.48C139.086 151.678 139.014 151.903 139.014 152.155C139.014 152.366 139.064 152.547 139.164 152.698C139.267 152.848 139.398 152.972 139.558 153.072C139.717 153.17 139.884 153.251 140.059 153.315C140.234 153.377 140.394 153.427 140.541 153.466L141.343 153.682C141.548 153.736 141.777 153.81 142.029 153.905C142.283 154 142.526 154.13 142.758 154.295C142.992 154.457 143.184 154.665 143.336 154.919C143.488 155.174 143.564 155.486 143.564 155.856C143.564 156.283 143.452 156.669 143.228 157.013C143.007 157.357 142.683 157.631 142.256 157.834C141.832 158.037 141.317 158.139 140.71 158.139C140.145 158.139 139.655 158.048 139.241 157.865C138.83 157.683 138.506 157.428 138.27 157.102C138.036 156.775 137.903 156.396 137.873 155.964H138.86C138.885 156.262 138.986 156.509 139.16 156.705C139.338 156.897 139.561 157.041 139.831 157.136C140.104 157.229 140.397 157.275 140.71 157.275C141.075 157.275 141.403 157.216 141.694 157.098C141.984 156.977 142.214 156.81 142.384 156.597C142.553 156.381 142.638 156.129 142.638 155.841C142.638 155.579 142.565 155.365 142.418 155.201C142.272 155.036 142.079 154.903 141.84 154.8C141.601 154.697 141.343 154.607 141.065 154.53L140.093 154.252C139.477 154.075 138.988 153.822 138.628 153.493C138.268 153.164 138.089 152.733 138.089 152.201C138.089 151.759 138.208 151.373 138.447 151.044C138.689 150.713 139.013 150.456 139.419 150.273C139.827 150.088 140.284 149.996 140.787 149.996C141.296 149.996 141.749 150.087 142.145 150.269C142.541 150.449 142.854 150.696 143.085 151.01C143.319 151.323 143.443 151.679 143.456 152.078H142.53ZM149.314 158H148.312L151.211 150.104H152.198L155.097 158H154.095L151.735 151.353H151.674L149.314 158ZM149.684 154.915H153.725V155.764H149.684V154.915ZM166.443 150.104V158H165.518L161.215 151.8H161.138V158H160.182V150.104H161.107L165.425 156.319H165.503V150.104H166.443ZM171.779 150.952V150.104H177.702V150.952H175.219V158H174.262V150.952H171.779ZM189.366 154.052C189.366 154.885 189.215 155.604 188.915 156.211C188.614 156.818 188.201 157.285 187.677 157.614C187.153 157.943 186.554 158.108 185.88 158.108C185.207 158.108 184.608 157.943 184.083 157.614C183.559 157.285 183.146 156.818 182.846 156.211C182.545 155.604 182.395 154.885 182.395 154.052C182.395 153.219 182.545 152.499 182.846 151.893C183.146 151.286 183.559 150.818 184.083 150.489C184.608 150.16 185.207 149.996 185.88 149.996C186.554 149.996 187.153 150.16 187.677 150.489C188.201 150.818 188.614 151.286 188.915 151.893C189.215 152.499 189.366 153.219 189.366 154.052ZM188.44 154.052C188.44 153.368 188.326 152.791 188.097 152.321C187.871 151.85 187.564 151.494 187.176 151.253C186.79 151.011 186.358 150.89 185.88 150.89C185.402 150.89 184.969 151.011 184.581 151.253C184.195 151.494 183.888 151.85 183.659 152.321C183.433 152.791 183.32 153.368 183.32 154.052C183.32 154.736 183.433 155.313 183.659 155.783C183.888 156.253 184.195 156.609 184.581 156.851C184.969 157.093 185.402 157.213 185.88 157.213C186.358 157.213 186.79 157.093 187.176 156.851C187.564 156.609 187.871 156.253 188.097 155.783C188.326 155.313 188.44 154.736 188.44 154.052ZM204.173 158H201.736V150.104H204.281C205.047 150.104 205.702 150.262 206.247 150.578C206.792 150.891 207.21 151.343 207.5 151.931C207.791 152.517 207.936 153.219 207.936 154.036C207.936 154.859 207.789 155.567 207.496 156.161C207.203 156.752 206.777 157.207 206.216 157.526C205.656 157.842 204.975 158 204.173 158ZM202.692 157.152H204.111C204.764 157.152 205.305 157.026 205.734 156.774C206.164 156.522 206.484 156.163 206.694 155.698C206.905 155.233 207.01 154.679 207.01 154.036C207.01 153.399 206.906 152.85 206.698 152.39C206.49 151.927 206.179 151.573 205.765 151.326C205.351 151.077 204.836 150.952 204.219 150.952H202.692V157.152ZM214.35 150.104V158H213.394V150.104H214.35ZM220.446 158H219.443L222.343 150.104H223.33L226.229 158H225.227L222.867 151.353H222.806L220.446 158ZM220.816 154.915H224.857V155.764H220.816V154.915Z" fill="black"/>
</svg>
