<svg width="77" height="17" viewBox="0 0 77 17" fill="none" xmlns="http://www.w3.org/2000/svg">
<g id="App Store">
<path d="M47.9776 2.18716V4.51733H46.517V6.04545H47.9776V11.2377C47.9776 13.0106 48.7797 13.7198 50.7975 13.7198C51.1521 13.7198 51.4898 13.6776 51.7852 13.6269V12.1157C51.532 12.141 51.3716 12.1579 51.093 12.1579C50.1896 12.1579 49.7928 11.7358 49.7928 10.7733V6.04545H51.7852V4.51733H49.7928V2.18716H47.9776Z" fill="#9B9B9B"/>
<path d="M56.9255 13.8464C59.6102 13.8464 61.2565 12.0482 61.2565 9.06791C61.2565 6.10454 59.6018 4.29782 56.9255 4.29782C54.2407 4.29782 52.5859 6.10454 52.5859 9.06791C52.5859 12.0482 54.2323 13.8464 56.9255 13.8464ZM56.9255 12.2339C55.3467 12.2339 54.4602 11.0773 54.4602 9.06791C54.4602 7.07545 55.3467 5.91036 56.9255 5.91036C58.4958 5.91036 59.3907 7.07545 59.3907 9.06791C59.3907 11.0688 58.4958 12.2339 56.9255 12.2339Z" fill="#9B9B9B"/>
<path d="M62.6651 13.6691H64.4803V8.24053C64.4803 6.94881 65.4512 6.07922 66.8273 6.07922C67.1481 6.07922 67.6885 6.13831 67.8404 6.18897V4.39913C67.6463 4.34848 67.3001 4.32315 67.03 4.32315C65.8311 4.32315 64.8095 4.98167 64.5478 5.88504H64.4127V4.47511H62.6651V13.6691Z" fill="#9B9B9B"/>
<path d="M72.3475 5.84282C73.6898 5.84282 74.5679 6.77995 74.6101 8.22365H69.9666C70.0679 6.7884 71.0051 5.84282 72.3475 5.84282ZM74.6016 11.187C74.2639 11.9046 73.5126 12.3014 72.415 12.3014C70.9629 12.3014 70.0257 11.2799 69.9666 9.66734V9.56603H76.459V8.93283C76.459 6.04545 74.914 4.29782 72.3559 4.29782C69.764 4.29782 68.1177 6.16364 68.1177 9.10168C68.1177 12.0397 69.7302 13.8464 72.3643 13.8464C74.4666 13.8464 75.9356 12.8333 76.3493 11.187H74.6016Z" fill="#9B9B9B"/>
<path d="M36.074 10.2739C36.214 12.5316 38.0954 13.9754 40.8956 13.9754C43.8883 13.9754 45.7609 12.4616 45.7609 10.0464C45.7609 8.14755 44.6933 7.09749 42.1031 6.4937L40.7118 6.15243C39.0667 5.7674 38.4017 5.25112 38.4017 4.34982C38.4017 3.21224 39.4342 2.46845 40.9831 2.46845C42.4532 2.46845 43.4682 3.19474 43.652 4.35857H45.5596C45.4459 2.23218 43.5732 0.73584 41.0093 0.73584C38.2529 0.73584 36.4153 2.23218 36.4153 4.48107C36.4153 6.33619 37.4566 7.43876 39.7405 7.97254L41.3681 8.36632C43.0395 8.76009 43.7745 9.33763 43.7745 10.3002C43.7745 11.4203 42.6194 12.2341 41.0443 12.2341C39.3555 12.2341 38.1829 11.4728 38.0166 10.2739H36.074Z" fill="#9B9B9B"/>
<path d="M17.2707 4.32315C16.0212 4.32315 14.9406 4.9479 14.3834 5.99479H14.2483V4.47511H12.5007V16.7254H14.3158V12.2761H14.4593C14.9406 13.247 15.979 13.8211 17.2876 13.8211C19.6094 13.8211 21.0868 11.9891 21.0868 9.06791C21.0868 6.14676 19.6094 4.32315 17.2707 4.32315ZM16.7557 12.1917C15.2361 12.1917 14.2821 10.9928 14.2821 9.07635C14.2821 7.15143 15.2361 5.95258 16.7642 5.95258C18.3007 5.95258 19.221 7.1261 19.221 9.06791C19.221 11.0182 18.3007 12.1917 16.7557 12.1917Z" fill="#9B9B9B"/>
<path d="M27.4384 4.32315C26.1889 4.32315 25.1082 4.9479 24.551 5.99479H24.4159V4.47511H22.6683V16.7254H24.4835V12.2761H24.627C25.1082 13.247 26.1467 13.8211 27.4553 13.8211C29.777 13.8211 31.2545 11.9891 31.2545 9.06791C31.2545 6.14676 29.777 4.32315 27.4384 4.32315ZM26.9234 12.1917C25.4037 12.1917 24.4497 10.9928 24.4497 9.07635C24.4497 7.15143 25.4037 5.95258 26.9318 5.95258C28.4684 5.95258 29.3886 7.1261 29.3886 9.06791C29.3886 11.0182 28.4684 12.1917 26.9234 12.1917Z" fill="#9B9B9B"/>
<path d="M9.24393 13.6691H11.3266L6.76753 1.04211H4.65864L0.0996094 13.6691H2.11224L3.27606 10.3177H8.08886L9.24393 13.6691ZM5.61245 3.33475H5.76121L7.59008 8.67259H3.77484L5.61245 3.33475Z" fill="#9B9B9B"/>
</g>
</svg>
