<svg width="19" height="23" viewBox="0 0 19 23" fill="none" xmlns="http://www.w3.org/2000/svg">
<g id="Apple logo">
<path d="M15.0502 12.2043C15.0722 10.4946 15.9904 8.87678 17.447 7.98127C16.5281 6.6689 14.989 5.83682 13.3877 5.78672C11.6797 5.60744 10.024 6.80872 9.15362 6.80872C8.26644 6.80872 6.92642 5.80452 5.48345 5.83421C3.60259 5.89497 1.84916 6.96432 0.934088 8.60869C-1.03296 12.0143 0.434279 17.0195 2.31855 19.7723C3.26129 21.1203 4.36308 22.6261 5.80476 22.5727C7.21552 22.5142 7.74241 21.6731 9.44533 21.6731C11.1324 21.6731 11.6268 22.5727 13.0977 22.5388C14.6115 22.5142 15.5653 21.1848 16.475 19.824C17.1523 18.8635 17.6735 17.8019 18.0193 16.6786C16.2403 15.9262 15.0523 14.1359 15.0502 12.2043Z" fill="#9B9B9B"/>
<path d="M12.2718 3.9763C13.0972 2.98544 13.5039 1.71186 13.4054 0.426025C12.1444 0.558471 10.9796 1.16116 10.143 2.114C9.32499 3.04497 8.89928 4.29614 8.97976 5.53283C10.2412 5.54582 11.4814 4.95947 12.2718 3.9763Z" fill="#9B9B9B"/>
</g>
</svg>
