<svg width="19" height="19" viewBox="0 0 19 19" fill="none" xmlns="http://www.w3.org/2000/svg">
<g id="vuesax/outline/element-3">
<g id="element-3">
<path id="Vector" d="M15.0107 8.54191H11.9432C10.4171 8.54191 9.68057 7.86616 9.68057 6.46909V3.02198C9.68057 1.62491 10.4247 0.949158 11.9432 0.949158H15.0107C16.5368 0.949158 17.2733 1.62491 17.2733 3.02198V6.4615C17.2733 7.86616 16.5292 8.54191 15.0107 8.54191ZM11.9432 2.08807C10.9258 2.08807 10.8195 2.3766 10.8195 3.02198V6.4615C10.8195 7.11448 10.9258 7.39541 11.9432 7.39541H15.0107C16.0281 7.39541 16.1344 7.10688 16.1344 6.4615V3.02198C16.1344 2.369 16.0281 2.08807 15.0107 2.08807H11.9432Z" fill="#292D32"/>
<path id="Vector_2" d="M15.0107 17.2732H11.9432C10.4171 17.2732 9.68057 16.5291 9.68057 15.0105V11.9431C9.68057 10.4169 10.4247 9.68042 11.9432 9.68042H15.0107C16.5368 9.68042 17.2733 10.4245 17.2733 11.9431V15.0105C17.2733 16.5291 16.5292 17.2732 15.0107 17.2732ZM11.9432 10.8193C11.0473 10.8193 10.8195 11.0471 10.8195 11.9431V15.0105C10.8195 15.9065 11.0473 16.1343 11.9432 16.1343H15.0107C15.9066 16.1343 16.1344 15.9065 16.1344 15.0105V11.9431C16.1344 11.0471 15.9066 10.8193 15.0107 10.8193H11.9432Z" fill="#292D32"/>
<path id="Vector_3" d="M6.27909 8.54191H3.21162C1.68547 8.54191 0.948975 7.86616 0.948975 6.46909V3.02198C0.948975 1.62491 1.69306 0.949158 3.21162 0.949158H6.27909C7.80523 0.949158 8.54173 1.62491 8.54173 3.02198V6.4615C8.54173 7.86616 7.79764 8.54191 6.27909 8.54191ZM3.21162 2.08807C2.19419 2.08807 2.08789 2.3766 2.08789 3.02198V6.4615C2.08789 7.11448 2.19419 7.39541 3.21162 7.39541H6.27909C7.29652 7.39541 7.40282 7.10688 7.40282 6.4615V3.02198C7.40282 2.369 7.29652 2.08807 6.27909 2.08807H3.21162Z" fill="#292D32"/>
<path id="Vector_4" d="M6.27909 17.2732H3.21162C1.68547 17.2732 0.948975 16.5291 0.948975 15.0105V11.9431C0.948975 10.4169 1.69306 9.68042 3.21162 9.68042H6.27909C7.80523 9.68042 8.54173 10.4245 8.54173 11.9431V15.0105C8.54173 16.5291 7.79764 17.2732 6.27909 17.2732ZM3.21162 10.8193C2.31567 10.8193 2.08789 11.0471 2.08789 11.9431V15.0105C2.08789 15.9065 2.31567 16.1343 3.21162 16.1343H6.27909C7.17503 16.1343 7.40282 15.9065 7.40282 15.0105V11.9431C7.40282 11.0471 7.17503 10.8193 6.27909 10.8193H3.21162Z" fill="#292D32"/>
</g>
</g>
</svg>
