<svg width="15" height="15" viewBox="0 0 15 15" fill="none" xmlns="http://www.w3.org/2000/svg">
<path id="clear/cross" fill-rule="evenodd" clip-rule="evenodd" d="M2.54123 0.438731L7.45301 5.38153L12.3656 0.438731C12.9469 -0.146244 13.8895 -0.146244 14.4708 0.438731C15.0522 1.02371 15.0522 1.97214 14.4708 2.55711L9.55841 7.49959L14.4708 12.4429C15.0522 13.0279 15.0522 13.9763 14.4708 14.5613C13.8895 15.1462 12.9469 15.1462 12.3656 14.5613L7.45301 9.61815L2.54123 14.5613C1.95989 15.1462 1.01735 15.1462 0.436006 14.5613C-0.145335 13.9763 -0.145335 13.0279 0.436006 12.4429L5.34811 7.49959L0.436006 2.55711C-0.145335 1.97214 -0.145335 1.02371 0.436006 0.438731C1.01735 -0.146244 1.95989 -0.146244 2.54123 0.438731Z" fill="#B6B6B6"/>
</svg>
