<svg width="19" height="19" viewBox="0 0 19 19" fill="none" xmlns="http://www.w3.org/2000/svg">
<g id="vuesax/outline/document-text">
<g id="document-text">
<path id="Vector" d="M12.6667 18.0105H6.33339C3.44381 18.0105 1.78131 16.348 1.78131 13.4584V5.54171C1.78131 2.65212 3.44381 0.989624 6.33339 0.989624H12.6667C15.5563 0.989624 17.2188 2.65212 17.2188 5.54171V13.4584C17.2188 16.348 15.5563 18.0105 12.6667 18.0105ZM6.33339 2.17712C4.06923 2.17712 2.96881 3.27754 2.96881 5.54171V13.4584C2.96881 15.7225 4.06923 16.823 6.33339 16.823H12.6667C14.9309 16.823 16.0313 15.7225 16.0313 13.4584V5.54171C16.0313 3.27754 14.9309 2.17712 12.6667 2.17712H6.33339Z" fill="#292D32"/>
<path id="Vector_2" d="M14.646 7.32304H13.0626C11.8593 7.32304 10.8856 6.34929 10.8856 5.14596V3.56262C10.8856 3.23804 11.1547 2.96887 11.4793 2.96887C11.8039 2.96887 12.0731 3.23804 12.0731 3.56262V5.14596C12.0731 5.69221 12.5164 6.13554 13.0626 6.13554H14.646C14.9706 6.13554 15.2397 6.40471 15.2397 6.72929C15.2397 7.05387 14.9706 7.32304 14.646 7.32304Z" fill="#292D32"/>
<path id="Vector_3" d="M9.50004 10.8853H6.33337C6.00879 10.8853 5.73962 10.6161 5.73962 10.2916C5.73962 9.96698 6.00879 9.69781 6.33337 9.69781H9.50004C9.82462 9.69781 10.0938 9.96698 10.0938 10.2916C10.0938 10.6161 9.82462 10.8853 9.50004 10.8853Z" fill="#292D32"/>
<path id="Vector_4" d="M12.6667 14.052H6.33337C6.00879 14.052 5.73962 13.7828 5.73962 13.4583C5.73962 13.1337 6.00879 12.8645 6.33337 12.8645H12.6667C12.9913 12.8645 13.2605 13.1337 13.2605 13.4583C13.2605 13.7828 12.9913 14.052 12.6667 14.052Z" fill="#292D32"/>
</g>
</g>
</svg>
