<svg width="88" height="19" viewBox="0 0 88 19" fill="none" xmlns="http://www.w3.org/2000/svg">
<path id="Google Play" d="M28.5091 5.54281C26.1169 5.54281 24.1671 7.36239 24.1671 9.8685C24.1671 12.3593 26.1169 14.1942 28.5091 14.1942C30.9023 14.1942 32.8521 12.3593 32.8521 9.8685C32.851 7.36239 30.9013 5.54281 28.5091 5.54281ZM28.5091 12.4916C27.1981 12.4916 26.0681 11.4104 26.0681 9.86951C26.0681 8.31235 27.1991 7.24745 28.5091 7.24745C29.8201 7.24745 30.9501 8.31235 30.9501 9.86951C30.9501 11.4094 29.8201 12.4916 28.5091 12.4916ZM19.0359 5.54281C16.6437 5.54281 14.694 7.36239 14.694 9.8685C14.694 12.3593 16.6437 14.1942 19.0359 14.1942C21.4291 14.1942 23.3789 12.3593 23.3789 9.8685C23.3789 7.36239 21.4291 5.54281 19.0359 5.54281ZM19.0359 12.4916C17.7249 12.4916 16.5949 11.4104 16.5949 9.86951C16.5949 8.31235 17.7259 7.24745 19.0359 7.24745C20.3469 7.24745 21.4769 8.31235 21.4769 9.86951C21.4779 11.4094 20.3469 12.4916 19.0359 12.4916ZM7.76859 6.87113V8.70596H12.1604C12.0292 9.73831 11.6854 10.492 11.1606 11.0158C10.5219 11.6545 9.52205 12.3593 7.76859 12.3593C5.06517 12.3593 2.95165 10.1797 2.95165 7.4763C2.95165 4.77288 5.06517 2.59325 7.76859 2.59325C9.2271 2.59325 10.292 3.16689 11.0782 3.90428L12.373 2.60953C11.2745 1.56091 9.81701 0.758424 7.76859 0.758424C4.06537 0.758424 0.952057 3.77308 0.952057 7.4763C0.952057 11.1795 4.06537 14.1942 7.76859 14.1942C9.76717 14.1942 11.2755 13.5382 12.4543 12.3095C13.6667 11.0971 14.044 9.3925 14.044 8.01637C14.044 7.59123 14.0115 7.19762 13.9454 6.87011H7.76859V6.87113ZM53.8509 8.29607C53.4908 7.32984 52.3924 5.54281 50.1477 5.54281C47.9192 5.54281 46.0671 7.29628 46.0671 9.8685C46.0671 12.2932 47.903 14.1942 50.3602 14.1942C52.3425 14.1942 53.4898 12.9818 53.9658 12.277L52.491 11.2934C51.9998 12.0146 51.3275 12.4895 50.3602 12.4895C49.394 12.4895 48.7054 12.0471 48.263 11.1785L54.0472 8.78631L53.8509 8.29607ZM47.9518 9.73831C47.9029 8.06621 49.2465 7.21491 50.2138 7.21491C50.9674 7.21491 51.6062 7.59225 51.8198 8.13232L47.9518 9.73831ZM43.2498 13.9328H45.1497V1.21815H43.2498V13.9328ZM40.1354 6.51006H40.0703C39.6442 6.00152 38.8244 5.54281 37.7931 5.54281C35.6297 5.54281 33.6474 7.44375 33.6474 9.88579C33.6474 12.3105 35.6297 14.1952 37.7931 14.1952C38.8254 14.1952 39.6442 13.7365 40.0703 13.2127H40.1354V13.8351C40.1354 15.4899 39.2506 16.3748 37.8256 16.3748C36.6621 16.3748 35.941 15.5398 35.646 14.8349L33.9912 15.5235C34.4662 16.6698 35.7274 18.0795 37.8256 18.0795C40.0541 18.0795 41.9387 16.7684 41.9387 13.5727V5.80624H40.1365V6.51006H40.1354ZM37.9568 12.4916C36.6458 12.4916 35.5484 11.3931 35.5484 9.88579C35.5484 8.36117 36.6458 7.24745 37.9568 7.24745C39.2506 7.24745 40.2666 8.36117 40.2666 9.88579C40.2666 11.3931 39.2506 12.4916 37.9568 12.4916ZM62.7545 1.21815H58.2071V13.9328H60.104V9.11585H62.7535C64.8568 9.11585 66.9256 7.59327 66.9256 5.16751C66.9256 2.74175 64.8578 1.21815 62.7545 1.21815ZM62.8033 7.34611H60.104V2.98788H62.8033C64.2221 2.98788 65.0277 4.16262 65.0277 5.16751C65.0277 6.15205 64.2221 7.34611 62.8033 7.34611ZM74.5324 5.52044C73.1583 5.52044 71.7354 6.12561 71.1465 7.46715L72.8308 8.16995C73.1908 7.46715 73.8621 7.23728 74.5649 7.23728C75.5464 7.23728 76.5442 7.82618 76.5605 8.87277V9.00397C76.2167 8.80767 75.4803 8.51373 74.5812 8.51373C72.7657 8.51373 70.9166 9.5115 70.9166 11.3758C70.9166 13.0774 72.4056 14.1728 74.0737 14.1728C75.3491 14.1728 76.0529 13.6002 76.4944 12.9289H76.5594V13.9104H78.3922V9.0355C78.3933 6.77959 76.7069 5.52044 74.5324 5.52044ZM74.3025 12.4885C73.6821 12.4885 72.8145 12.1773 72.8145 11.4084C72.8145 10.4269 73.8947 10.0506 74.8273 10.0506C75.6603 10.0506 76.0539 10.2306 76.5605 10.4757C76.413 11.6545 75.3989 12.4885 74.3025 12.4885ZM85.0664 5.7981L82.8908 11.3107H82.8257L80.5678 5.7981H78.5234L81.9093 13.5026L79.9789 17.7886H81.9582L87.1768 5.7981H85.0664ZM67.9732 13.9328H69.87V1.21815H67.9732V13.9328Z" fill="#9B9B9B"/>
</svg>
