<svg width="20" height="23" viewBox="0 0 20 23" fill="none" xmlns="http://www.w3.org/2000/svg">
<g id="Google Play logo">
<path id="Subtract" fill-rule="evenodd" clip-rule="evenodd" d="M13.859 6.67485L4.13963 1.03822C3.7726 0.818396 3.34425 0.691528 2.88587 0.691528C1.93992 0.691528 1.10805 1.26476 0.709278 2.06602L0.78255 2.13928L9.58912 10.944L13.859 6.67485ZM0.461525 3.01114C0.459878 3.04663 0.459045 3.08227 0.459045 3.11804V19.9616C0.459045 19.9978 0.459898 20.0338 0.461584 20.0697L8.99258 11.5404L0.461525 3.01114ZM0.709767 21.0144C1.10879 21.8152 1.94049 22.388 2.88587 22.388C3.33438 22.388 3.75548 22.2668 4.1166 22.0539L4.14528 22.0371L13.8749 16.4216L9.58912 12.1368L0.782553 20.9417L0.709767 21.0144ZM14.6313 15.985L18.5939 13.6979C19.3551 13.287 19.8717 12.4847 19.8717 11.5594C19.8717 10.6408 19.362 9.84235 18.6084 9.43011L18.5998 9.42421L14.6141 7.11275L10.1857 11.5404L14.6313 15.985Z" fill="#9B9B9B"/>
</g>
</svg>
