<svg width="91" height="91" viewBox="0 0 91 91" fill="none" xmlns="http://www.w3.org/2000/svg">
<g id="Group 34">
<rect id="Rectangle 48" width="91" height="91" rx="6.5942" fill="#FAE803"/>
<g id="Logo">
<path id="Caminho 1364" d="M55.675 59.1329C54.1064 59.1696 52.5505 58.8433 51.1289 58.1793C49.9094 57.6071 48.8752 56.7036 48.1444 55.572C47.4391 54.4419 47.0759 53.132 47.0985 51.8001H52.5585C52.5464 52.161 52.6133 52.5203 52.7545 52.8526C52.8958 53.185 53.1079 53.4825 53.3762 53.7243C54.0224 54.2538 54.8451 54.5191 55.6789 54.4668C56.2675 54.485 56.8512 54.3548 57.3763 54.0883C57.8197 53.8536 58.1861 53.496 58.4313 53.0583C58.6778 52.6083 58.8032 52.1021 58.7953 51.5891C58.807 51.2093 58.7419 50.8311 58.6039 50.4771C58.4659 50.1232 58.2578 49.8007 57.9922 49.5291C57.6817 49.2421 57.316 49.0215 56.9173 48.8809C56.5186 48.7403 56.0954 48.6826 55.6736 48.7114C55.1409 48.702 54.6113 48.7947 54.1134 48.9844C53.6887 49.1463 53.2945 49.3791 52.9476 49.6728L50.4326 45.496L56.5546 41.7387L56.2816 41.2533H48.0375V36.4053H63.4324V41.223L55.46 46.0724L52.9146 45.1334C53.3568 45.0084 53.8078 44.9172 54.2638 44.8604C54.7511 44.799 55.2418 44.7686 55.733 44.7694C57.2781 44.7332 58.8144 45.0114 60.2487 45.587C61.44 46.0676 62.4662 46.8835 63.2029 47.9359C63.918 49.017 64.2831 50.292 64.2487 51.5878V51.9518C64.2717 53.2651 63.908 54.5561 63.2029 55.6643C62.4723 56.7745 61.4439 57.6566 60.2355 58.2097C58.8041 58.8566 57.2452 59.1722 55.675 59.1329Z" fill="#2A2A2A"/>
<path id="Caminho 1365" d="M32.7996 52.6482V47.8001H36.437C37.0579 47.8158 37.6728 47.6752 38.2253 47.3913C38.7258 47.1256 39.1382 46.7201 39.4123 46.2241C39.7061 45.6747 39.8524 45.0586 39.8369 44.4358C39.8547 43.803 39.7084 43.1765 39.4123 42.6171C39.1404 42.1234 38.727 41.7224 38.2253 41.4657C37.67 41.1909 37.0563 41.0552 36.437 41.0701H32.7996V36.222H36.2853C37.9765 36.1806 39.6566 36.5064 41.2098 37.1769C42.524 37.7532 43.6369 38.7077 44.4067 39.9187C45.1802 41.207 45.5692 42.6897 45.5277 44.1918V44.6771C45.5666 46.1693 45.1776 47.6415 44.4067 48.9198C43.635 50.133 42.5231 51.0921 41.2098 51.6775C39.6593 52.3579 37.978 52.6888 36.2853 52.6469L32.7996 52.6482ZM27.7695 58.5276V36.2233H33.4036V58.5276H27.7695Z" fill="#2A2A2A"/>
</g>
</g>
</svg>
