<svg width="15" height="15" viewBox="0 0 15 15" fill="none" xmlns="http://www.w3.org/2000/svg">
<g id="vuesax/outline/search-normal">
<g id="search-normal">
<path id="Vector" d="M7.18739 13.5938C3.65614 13.5938 0.781143 10.7188 0.781143 7.18756C0.781143 3.65631 3.65614 0.781311 7.18739 0.781311C10.7186 0.781311 13.5936 3.65631 13.5936 7.18756C13.5936 10.7188 10.7186 13.5938 7.18739 13.5938ZM7.18739 1.71881C4.16864 1.71881 1.71864 4.17506 1.71864 7.18756C1.71864 10.2001 4.16864 12.6563 7.18739 12.6563C10.2061 12.6563 12.6561 10.2001 12.6561 7.18756C12.6561 4.17506 10.2061 1.71881 7.18739 1.71881Z" fill="#292D32"/>
<path id="Vector_2" d="M13.7499 14.2187C13.6311 14.2187 13.5124 14.1749 13.4186 14.0812L12.1686 12.8312C11.9874 12.6499 11.9874 12.3499 12.1686 12.1687C12.3499 11.9874 12.6499 11.9874 12.8311 12.1687L14.0811 13.4187C14.2624 13.5999 14.2624 13.8999 14.0811 14.0812C13.9874 14.1749 13.8686 14.2187 13.7499 14.2187Z" fill="#292D32"/>
</g>
</g>
</svg>
