<svg width="20" height="21" viewBox="0 0 20 21" fill="none" xmlns="http://www.w3.org/2000/svg">
<path id="Subtract" fill-rule="evenodd" clip-rule="evenodd" d="M11.203 0.85686C10.7786 0.800309 10.3455 0.771118 9.90567 0.771118C9.86963 0.771118 9.83364 0.771314 9.79769 0.771705V8.33811H11.203V0.85686ZM8.50051 0.871846C4.50762 1.44947 1.29959 4.45203 0.417822 8.33811H8.50051V0.871846ZM0.41785 12.6621C0.260065 11.9667 0.176758 11.2431 0.176758 10.5C0.176758 10.2086 0.18957 9.92019 0.214662 9.6353H8.50051V12.6621H0.41785ZM0.809702 13.9593C2.04423 17.2036 4.96463 19.6167 8.50051 20.1282V13.9593H0.809702ZM11.203 20.1432C10.7786 20.1997 10.3455 20.2289 9.90567 20.2289C9.86963 20.2289 9.83364 20.2287 9.79769 20.2283V13.9593H11.203V20.1432ZM12.5002 19.8792C15.4937 19.0529 17.9085 16.8319 19.0016 13.9593H12.5002V19.8792ZM19.3935 12.6621C19.5513 11.9667 19.6346 11.2431 19.6346 10.5C19.6346 10.2086 19.6218 9.92019 19.5967 9.6353H12.5002V12.6621H19.3935ZM12.5002 1.1209C15.9307 2.06776 18.6012 4.84625 19.3935 8.33811H12.5002V1.1209ZM9.79769 9.6353H11.203V12.6621H9.79769V9.6353Z" fill="#9B9B9B"/>
</svg>
