<svg width="26" height="27" viewBox="0 0 26 27" fill="none" xmlns="http://www.w3.org/2000/svg">
<g id="vuesax/outline/unlock">
<g id="unlock">
<path id="Vector" d="M18.3664 25.0385H7.63368C2.90053 25.0385 1.46234 23.6004 1.46234 18.8672V16.7207C1.46234 11.9875 2.90053 10.5493 7.63368 10.5493H18.3664C23.0996 10.5493 24.5378 11.9875 24.5378 16.7207V18.8672C24.5378 23.6004 23.0996 25.0385 18.3664 25.0385ZM7.63368 12.1592C3.79135 12.1592 3.07226 12.8891 3.07226 16.7207V18.8672C3.07226 22.6988 3.79135 23.4286 7.63368 23.4286H18.3664C22.2088 23.4286 22.9279 22.6988 22.9279 18.8672V16.7207C22.9279 12.8891 22.2088 12.1592 18.3664 12.1592H7.63368Z" fill="white"/>
<path id="Vector_2" d="M6.56045 12.1589C6.12041 12.1589 5.75549 11.794 5.75549 11.3539V9.20738C5.75549 6.09488 6.50679 1.96277 13.0001 1.96277C17.8084 1.96277 20.2447 4.03419 20.2447 8.13411C20.2447 8.57415 19.8798 8.93906 19.4398 8.93906C18.9997 8.93906 18.6348 8.57415 18.6348 8.13411C18.6348 6.00902 17.9908 3.57268 13.0001 3.57268C8.32062 3.57268 7.36541 5.82656 7.36541 9.20738V11.3539C7.36541 11.794 7.00049 12.1589 6.56045 12.1589Z" fill="white"/>
<path id="Vector_3" d="M13.0001 21.2811C11.0789 21.2811 9.51196 19.7141 9.51196 17.793C9.51196 15.8718 11.0789 14.3048 13.0001 14.3048C14.9213 14.3048 16.4883 15.8718 16.4883 17.793C16.4883 19.7141 14.9213 21.2811 13.0001 21.2811ZM13.0001 15.9147C11.9698 15.9147 11.1219 16.7626 11.1219 17.793C11.1219 18.8233 11.9698 19.6712 13.0001 19.6712C14.0305 19.6712 14.8783 18.8233 14.8783 17.793C14.8783 16.7626 14.0305 15.9147 13.0001 15.9147Z" fill="white"/>
</g>
</g>
</svg>
