<svg width="26" height="27" viewBox="0 0 26 27" fill="none" xmlns="http://www.w3.org/2000/svg">
<g id="vuesax/outline/verify">
<g id="verify">
<path id="Vector" d="M11.7014 16.9024C11.4868 16.9024 11.2828 16.8165 11.1326 16.6662L8.53525 14.0689C8.224 13.7577 8.224 13.2425 8.53525 12.9312C8.8465 12.62 9.36167 12.62 9.67292 12.9312L11.7014 14.9597L16.3165 10.3446C16.6278 10.0334 17.1429 10.0334 17.4542 10.3446C17.7654 10.6559 17.7654 11.1711 17.4542 11.4823L12.2702 16.6662C12.12 16.8165 11.9161 16.9024 11.7014 16.9024Z" fill="white"/>
<path id="Vector_2" d="M12.9998 25.0382C12.3237 25.0382 11.6475 24.8128 11.1216 24.362L9.42581 22.9024C9.25409 22.7521 8.82478 22.6019 8.59939 22.6019H6.75335C5.1649 22.6019 3.87697 21.3139 3.87697 19.7255V17.8902C3.87697 17.6648 3.72671 17.2462 3.57646 17.0745L2.12753 15.368C1.24745 14.3269 1.24745 12.6848 2.12753 11.6437L3.57646 9.93721C3.72671 9.76549 3.87697 9.34691 3.87697 9.12152V7.27549C3.87697 5.68704 5.1649 4.39911 6.75335 4.39911H8.61012C8.83551 4.39911 9.26482 4.23811 9.43654 4.09859L11.1323 2.63893C12.1841 1.73738 13.8262 1.73738 14.8781 2.63893L16.5738 4.09859C16.7456 4.24885 17.1749 4.39911 17.4003 4.39911H19.2248C20.8133 4.39911 22.1012 5.68704 22.1012 7.27549V9.10006C22.1012 9.32544 22.2622 9.75475 22.4125 9.92648L23.8721 11.6223C24.7737 12.6741 24.7737 14.3162 23.8721 15.368L22.4125 17.0638C22.2622 17.2355 22.1012 17.6648 22.1012 17.8902V19.7148C22.1012 21.3032 20.8133 22.5911 19.2248 22.5911H17.4003C17.1749 22.5911 16.7456 22.7521 16.5738 22.8917L14.8781 24.3513C14.3521 24.8128 13.676 25.0382 12.9998 25.0382ZM6.75335 6.00902C6.05572 6.00902 5.48689 6.57786 5.48689 7.27549V9.11079C5.48689 9.72256 5.1971 10.506 4.79999 10.9676L3.35107 12.6741C2.97542 13.1141 2.97542 13.8761 3.35107 14.3162L4.79999 16.0227C5.1971 16.4949 5.48689 17.2677 5.48689 17.8795V19.7148C5.48689 20.4124 6.05572 20.9812 6.75335 20.9812H8.61012C9.23262 20.9812 10.0161 21.271 10.4884 21.6789L12.1841 23.1385C12.6242 23.5142 13.3969 23.5142 13.837 23.1385L15.5328 21.6789C16.005 21.2817 16.7885 20.9812 17.411 20.9812H19.2356C19.9332 20.9812 20.502 20.4124 20.502 19.7148V17.8902C20.502 17.2677 20.7918 16.4842 21.1997 16.012L22.6593 14.3162C23.035 13.8761 23.035 13.1034 22.6593 12.6633L21.1997 10.9676C20.7918 10.4953 20.502 9.71182 20.502 9.08932V7.27549C20.502 6.57786 19.9332 6.00902 19.2356 6.00902H17.411C16.7885 6.00902 16.005 5.71924 15.5328 5.31139L13.837 3.85173C13.3969 3.47609 12.6242 3.47609 12.1841 3.85173L10.4884 5.32212C10.0161 5.71924 9.22189 6.00902 8.61012 6.00902H6.75335Z" fill="white"/>
</g>
</g>
</svg>
